# Blender 4.3.2
# www.blender.org
mtllib arena.mtl
o Plano
v -1.000000 0.000000 1.000000
v 1.000000 0.000000 1.000000
v -1.000000 0.000000 -1.000000
v 1.000000 0.000000 -1.000000
v -1.000000 0.000000 0.000000
v 0.000000 0.000000 1.000000
v 1.000000 0.000000 0.000000
v 0.000000 0.000000 -1.000000
v 0.000000 0.000000 0.000000
v -1.000000 0.000000 0.500000
v 0.500000 0.000000 1.000000
v 1.000000 0.000000 -0.500000
v -0.500000 0.000000 -1.000000
v -1.000000 0.000000 -0.500000
v -0.500000 0.000000 1.000000
v 1.000000 0.000000 0.500000
v 0.500000 0.000000 -1.000000
v -0.044022 0.090992 -0.511737
v -0.035257 0.096358 0.597117
v -0.500000 0.000000 0.000000
v 0.500000 0.000000 0.000000
v 0.500000 0.000000 0.500000
v -0.501370 0.001618 0.548157
v -0.544022 0.090992 -0.511737
v 0.387513 0.120372 -0.552123
v -1.000000 0.000000 0.750000
v 0.750000 0.000000 1.000000
v 1.000000 0.000000 -0.750000
v -0.750000 0.000000 -1.000000
v -1.000000 0.000000 -0.250000
v -0.250000 0.000000 1.000000
v 1.000000 0.000000 0.250000
v 0.250000 0.000000 -1.000000
v -0.044022 0.090992 -0.761737
v -0.001370 0.001618 0.298157
v -0.750000 0.000000 0.000000
v 0.250000 0.000000 0.000000
v -1.000000 0.000000 0.250000
v 0.250000 0.000000 1.000000
v 1.000000 0.000000 -0.250000
v -0.250000 0.000000 -1.000000
v -1.000000 0.000000 -0.750000
v -0.750000 0.000000 1.000000
v 1.000000 0.000000 0.750000
v 0.750000 0.000000 -1.000000
v 0.000000 0.000000 -0.250000
v -0.001370 0.001618 0.798157
v -0.250000 0.000000 0.000000
v 0.750000 0.000000 0.000000
v 0.442008 0.101704 0.191879
v 0.500000 0.000000 0.750000
v 0.250000 0.000000 0.500000
v 0.750000 0.000000 0.500000
v -0.500000 0.000000 0.250000
v -0.501370 0.001618 0.798157
v -0.751370 0.001618 0.548157
v -0.285257 0.096358 0.597117
v -0.544022 0.090992 -0.761737
v -0.544022 0.090992 -0.261737
v -0.794022 0.090992 -0.511737
v -0.294022 0.090992 -0.511737
v 0.500000 0.000000 -0.750000
v 0.500000 0.000000 -0.250000
v 0.205978 0.090992 -0.511737
v 0.750000 0.000000 -0.500000
v 0.750000 0.000000 -0.250000
v 0.250000 0.000000 -0.250000
v 0.205978 0.090992 -0.761737
v -0.294022 0.090992 -0.261737
v -0.794022 0.090992 -0.261737
v -0.750000 0.000000 -0.750000
v -0.251370 0.001618 0.798157
v -0.785257 0.096358 0.847117
v -0.750000 0.000000 0.250000
v 0.750000 0.000000 0.750000
v 0.250000 0.000000 0.750000
v 0.250000 0.000000 0.250000
v 0.750000 0.000000 0.250000
v -0.251370 0.001618 0.298157
v -0.294022 0.090992 -0.761737
v 0.750000 0.000000 -0.750000
vn -0.0000 1.0000 -0.0000
vn -0.0000 0.9342 -0.3568
vn -0.0000 1.0000 -0.0054
vn -0.4681 0.8837 -0.0000
vn 0.2640 0.9277 -0.2640
vn -0.0000 0.9046 0.4263
vn -0.4041 0.9147 -0.0000
vn 0.2933 0.9099 -0.2933
vn -0.0764 0.9377 0.3388
vn 0.2686 0.9251 0.2686
vn -0.0000 0.9445 0.3284
vn -0.1598 0.9872 -0.0000
vn 0.2743 0.9217 0.2743
vn -0.4015 0.9159 -0.0000
vn -0.0000 1.0000 0.0080
vn -0.0065 1.0000 -0.0000
vn -0.4094 0.9124 -0.0000
vn 0.3516 0.8264 0.4398
vn 0.0850 0.9068 0.4130
vn 0.0054 1.0000 -0.0054
vn 0.2239 0.9361 -0.2713
vn 0.3528 0.8667 -0.3528
vn 0.2586 0.9308 0.2586
vn -0.0055 1.0000 -0.0055
vn -0.0000 0.9533 -0.3021
vn 0.3400 0.8768 -0.3400
vn -0.0000 0.8836 -0.4683
vn -0.0000 0.9290 0.3701
vn 0.2879 0.8821 -0.3729
vn -0.2644 0.9103 -0.3184
vn -0.0000 0.8460 0.5332
vn 0.3200 0.9474 -0.0000
vn 0.0064 1.0000 -0.0000
vn -0.3525 0.8669 0.3525
vn -0.3190 0.8925 -0.3190
vt 0.156351 0.242264
vt 0.242261 0.156355
vt 0.242261 0.242265
vt 0.515255 0.238112
vt 0.585901 0.156361
vt 0.601165 0.238114
vt 0.499991 0.585910
vt 0.585901 0.500001
vt 0.585901 0.585912
vt 0.156351 0.585904
vt 0.242261 0.499996
vt 0.242261 0.585906
vt 0.348252 0.565796
vt 0.414081 0.499999
vt 0.414081 0.585909
vt 0.328171 0.757727
vt 0.414081 0.671819
vt 0.414081 0.757729
vt 0.156351 0.757724
vt 0.242261 0.671816
vt 0.242261 0.757726
vt 0.671810 0.585913
vt 0.757720 0.500004
vt 0.757720 0.585915
vt 0.671810 0.757733
vt 0.757720 0.671825
vt 0.769507 0.774430
vt 0.585901 0.757732
vt 0.511778 0.688515
vt 0.597687 0.688517
vt 0.687075 0.238115
vt 0.757720 0.156364
vt 0.757720 0.242274
vt 0.687075 0.409935
vt 0.772985 0.324027
vt 0.772985 0.409937
vt 0.601165 0.409934
vt 0.515255 0.324022
vt 0.601165 0.324024
vt 0.328171 0.242267
vt 0.414081 0.156358
vt 0.429345 0.238111
vt 0.414081 0.414088
vt 0.343435 0.324019
vt 0.429345 0.324021
vt 0.156351 0.414084
vt 0.242261 0.328175
vt 0.242261 0.414085
vt 0.328171 0.414087
vt 0.328171 0.499997
vt 0.156351 0.499994
vt 0.499991 0.414090
vt 0.499991 0.500000
vt 0.499991 0.156360
vt 0.687075 0.324025
vt 0.671810 0.500003
vt 0.843630 0.328186
vt 0.843630 0.414096
vt 0.843630 0.500006
vt 0.843630 0.156366
vt 0.843630 0.242276
vt 0.671810 0.671823
vt 0.671811 0.843643
vt 0.585901 0.843642
vt 0.499991 0.757730
vt 0.843630 0.757736
vt 0.843630 0.671826
vt 0.843630 0.843646
vt 0.757720 0.843645
vt 0.843630 0.585916
vt 0.328171 0.671817
vt 0.242261 0.843636
vt 0.328171 0.843637
vt 0.156351 0.843634
vt 0.414081 0.843639
vt 0.499991 0.843640
vt 0.156351 0.671814
vt 0.671810 0.156363
vt 0.328171 0.156357
vt 0.156351 0.328174
vt 0.156351 0.156354
s 0
g Plano_Material.001
usemtl Material.001
f 28/1/1 45/2/1 81/3/1
f 34/4/2 41/5/2 80/6/2
f 35/7/3 48/8/3 79/9/3
f 32/10/1 49/11/1 78/12/1
f 50/13/4 37/14/4 77/15/4
f 51/16/1 52/17/1 76/18/1
f 44/19/1 53/20/1 75/21/1
f 54/22/1 36/23/1 74/24/1
f 55/25/5 56/26/5 73/27/5
f 72/28/6 19/29/6 57/30/6
f 58/31/7 29/32/7 71/33/7
f 59/34/1 60/35/1 70/36/1
f 69/37/1 18/38/1 61/39/1
f 62/40/8 33/41/8 68/42/8
f 67/43/9 25/44/9 64/45/9
f 40/46/1 65/47/1 66/48/1
f 63/49/10 65/47/10 25/44/10
f 49/11/1 63/49/1 21/50/1
f 7/51/1 66/48/1 49/11/1
f 46/52/11 64/45/11 18/38/11
f 37/14/1 46/52/1 9/53/1
f 21/50/1 67/43/1 37/14/1
f 68/42/2 8/54/2 34/4/2
f 64/45/1 34/4/1 18/38/1
f 25/44/12 68/42/12 64/45/12
f 69/37/1 24/55/1 59/34/1
f 20/56/11 69/37/11 59/34/11
f 48/8/13 46/52/13 69/37/13
f 70/36/7 14/57/7 30/58/7
f 5/59/7 70/36/7 30/58/7
f 36/23/11 59/34/11 70/36/11
f 71/33/1 3/60/1 42/61/1
f 60/35/7 42/61/7 14/57/7
f 24/55/2 71/33/2 60/35/2
f 55/25/14 57/30/14 23/62/14
f 15/63/15 72/28/15 55/25/15
f 31/64/15 47/65/15 72/28/15
f 26/66/16 56/26/16 10/67/16
f 1/68/17 73/27/17 26/66/17
f 43/69/18 55/25/18 73/27/18
f 74/24/1 5/59/1 38/70/1
f 10/67/1 74/24/1 38/70/1
f 23/62/3 74/24/3 56/26/3
f 75/21/1 22/71/1 51/16/1
f 27/72/1 51/16/1 11/73/1
f 2/74/1 75/21/1 27/72/1
f 76/18/19 19/29/19 47/65/19
f 39/75/15 47/65/15 6/76/15
f 11/73/1 76/18/1 39/75/1
f 77/15/20 9/53/20 35/7/20
f 52/17/21 35/7/21 19/29/21
f 22/71/1 77/15/1 52/17/1
f 78/12/22 21/50/22 50/13/22
f 22/71/23 78/12/23 50/13/23
f 16/77/1 78/12/1 53/20/1
f 54/22/1 48/8/1 20/56/1
f 23/62/24 79/9/24 54/22/24
f 19/29/25 79/9/25 57/30/25
f 80/6/2 13/78/2 58/31/2
f 61/39/1 58/31/1 24/55/1
f 18/38/1 80/6/1 61/39/1
f 81/3/1 17/79/1 62/40/1
f 65/47/26 62/40/26 25/44/26
f 12/80/1 81/3/1 65/47/1
f 28/1/1 4/81/1 45/2/1
f 34/4/2 8/54/2 41/5/2
f 35/7/3 9/53/3 48/8/3
f 32/10/1 7/51/1 49/11/1
f 50/13/27 21/50/27 37/14/27
f 51/16/1 22/71/1 52/17/1
f 44/19/1 16/77/1 53/20/1
f 54/22/1 20/56/1 36/23/1
f 55/25/1 23/62/1 56/26/1
f 72/28/6 47/65/6 19/29/6
f 58/31/2 13/78/2 29/32/2
f 59/34/1 24/55/1 60/35/1
f 69/37/13 46/52/13 18/38/13
f 62/40/1 17/79/1 33/41/1
f 67/43/28 63/49/28 25/44/28
f 40/46/1 12/80/1 65/47/1
f 63/49/1 66/48/1 65/47/1
f 49/11/1 66/48/1 63/49/1
f 7/51/1 40/46/1 66/48/1
f 46/52/11 67/43/11 64/45/11
f 37/14/1 67/43/1 46/52/1
f 21/50/1 63/49/1 67/43/1
f 68/42/2 33/41/2 8/54/2
f 64/45/1 68/42/1 34/4/1
f 25/44/29 62/40/29 68/42/29
f 69/37/1 61/39/1 24/55/1
f 20/56/11 48/8/11 69/37/11
f 48/8/1 9/53/1 46/52/1
f 70/36/7 60/35/7 14/57/7
f 5/59/11 36/23/11 70/36/11
f 36/23/11 20/56/11 59/34/11
f 71/33/1 29/32/1 3/60/1
f 60/35/2 71/33/2 42/61/2
f 24/55/7 58/31/7 71/33/7
f 55/25/6 72/28/6 57/30/6
f 15/63/15 31/64/15 72/28/15
f 31/64/15 6/76/15 47/65/15
f 26/66/30 73/27/30 56/26/30
f 1/68/31 43/69/31 73/27/31
f 43/69/15 15/63/15 55/25/15
f 74/24/1 36/23/1 5/59/1
f 10/67/24 56/26/24 74/24/24
f 23/62/3 54/22/3 74/24/3
f 75/21/1 53/20/1 22/71/1
f 27/72/1 75/21/1 51/16/1
f 2/74/1 44/19/1 75/21/1
f 76/18/32 52/17/32 19/29/32
f 39/75/33 76/18/33 47/65/33
f 11/73/1 51/16/1 76/18/1
f 77/15/1 37/14/1 9/53/1
f 52/17/33 77/15/33 35/7/33
f 22/71/34 50/13/34 77/15/34
f 78/12/1 49/11/1 21/50/1
f 22/71/1 53/20/1 78/12/1
f 16/77/1 32/10/1 78/12/1
f 54/22/24 79/9/24 48/8/24
f 23/62/35 57/30/35 79/9/35
f 19/29/25 35/7/25 79/9/25
f 80/6/2 41/5/2 13/78/2
f 61/39/1 80/6/1 58/31/1
f 18/38/1 34/4/1 80/6/1
f 81/3/1 45/2/1 17/79/1
f 65/47/1 81/3/1 62/40/1
f 12/80/1 28/1/1 81/3/1
